<svg xmlns="http://www.w3.org/2000/svg" xmlns:xlink="http://www.w3.org/1999/xlink" width="500" zoomAndPan="magnify" viewBox="0 0 375 374.999991" height="500" preserveAspectRatio="xMidYMid meet" version="1.0"><defs><g/><clipPath id="a5084ebf8b"><path d="M 146.523438 134.640625 L 208.773438 134.640625 L 208.773438 187.140625 L 146.523438 187.140625 Z M 146.523438 134.640625 " clip-rule="nonzero"/></clipPath></defs><rect x="-37.5" width="450" fill="#ffffff" y="-37.499999" height="449.999989" fill-opacity="1"/><rect x="-37.5" width="450" fill="#dd551b" y="-37.499999" height="449.999989" fill-opacity="1"/><g fill="#ffffff" fill-opacity="1"><g transform="translate(91.380606, 232.323062)"><g><path d="M 76.78125 -20.9375 L 76.78125 -7.296875 C 76.78125 -2.648438 73.613281 -0.164062 67.28125 0.15625 C 60.945312 0.488281 54.070312 0.65625 46.65625 0.65625 C 39.25 0.65625 30.785156 0.382812 21.265625 -0.15625 C 18.128906 -0.375 15.613281 -1.457031 13.71875 -3.40625 C 11.820312 -5.351562 10.710938 -7.570312 10.390625 -10.0625 C 9.523438 -19.582031 9.09375 -34.539062 9.09375 -54.9375 C 9.09375 -75.332031 9.414062 -90.179688 10.0625 -99.484375 C 10.707031 -108.796875 15.414062 -113.507812 24.1875 -113.625 C 34.25 -113.832031 45.015625 -113.9375 56.484375 -113.9375 C 67.953125 -113.9375 80.367188 -113.773438 93.734375 -113.453125 C 107.097656 -113.128906 118 -108.097656 126.4375 -98.359375 C 134.882812 -88.617188 139.109375 -77.90625 139.109375 -66.21875 C 139.109375 -54.53125 135.375 -44.898438 127.90625 -37.328125 C 120.4375 -29.753906 109.503906 -25.96875 95.109375 -25.96875 L 82.453125 -25.96875 C 81.046875 -25.96875 79.75 -25.476562 78.5625 -24.5 C 77.375 -23.53125 76.78125 -22.34375 76.78125 -20.9375 Z M 76.609375 -79.703125 L 76.9375 -49.671875 C 76.9375 -47.609375 78.070312 -46.578125 80.34375 -46.578125 C 87.050781 -46.578125 92.328125 -48.441406 96.171875 -52.171875 C 100.015625 -55.910156 101.9375 -60.320312 101.9375 -65.40625 C 101.9375 -70.5 100.125 -74.882812 96.5 -78.5625 C 92.875 -82.238281 87.539062 -84.078125 80.5 -84.078125 C 77.90625 -84.078125 76.609375 -82.617188 76.609375 -79.703125 Z M 76.609375 -79.703125 "/></g></g></g><g clip-path="url(#a5084ebf8b)"><path fill="#dd551b" d="M 201.070312 174.957031 L 201.070312 174.949219 C 201.160156 174.515625 201.21875 174.0625 201.257812 173.585938 C 201.914062 173.539062 202.554688 173.496094 203.160156 173.472656 C 203.808594 173.449219 204.425781 173.445312 204.988281 173.457031 C 205.273438 173.46875 205.542969 173.480469 205.800781 173.488281 C 206.058594 173.507812 206.304688 173.523438 206.535156 173.539062 C 206.988281 173.589844 207.390625 173.632812 207.714844 173.703125 C 208.042969 173.753906 208.292969 173.820312 208.464844 173.863281 C 208.640625 173.902344 208.730469 173.925781 208.730469 173.925781 C 208.730469 173.925781 208.640625 173.894531 208.472656 173.839844 C 208.304688 173.78125 208.058594 173.6875 207.734375 173.617188 C 207.410156 173.527344 207.011719 173.457031 206.554688 173.375 C 206.324219 173.34375 206.078125 173.308594 205.820312 173.273438 C 205.5625 173.246094 205.285156 173.226562 205 173.203125 C 204.429688 173.167969 203.8125 173.144531 203.15625 173.140625 C 202.828125 173.144531 202.492188 173.148438 202.144531 173.152344 C 201.863281 173.164062 201.574219 173.175781 201.28125 173.191406 C 201.328125 172.332031 201.300781 171.417969 201.226562 170.480469 C 201.546875 170.410156 201.863281 170.347656 202.171875 170.292969 C 202.78125 170.183594 203.359375 170.097656 203.894531 170.039062 C 204.429688 169.980469 204.925781 169.945312 205.363281 169.917969 C 205.800781 169.90625 206.1875 169.894531 206.5 169.917969 C 206.816406 169.921875 207.0625 169.953125 207.230469 169.96875 C 207.402344 169.984375 207.492188 169.992188 207.492188 169.992188 C 207.492188 169.992188 207.402344 169.976562 207.234375 169.945312 C 207.066406 169.914062 206.824219 169.855469 206.507812 169.828125 C 206.191406 169.785156 205.804688 169.769531 205.363281 169.75 C 204.917969 169.742188 204.417969 169.742188 203.871094 169.785156 C 203.0625 169.84375 202.15625 169.949219 201.195312 170.109375 C 200.648438 164.347656 198.28125 157.753906 198.070312 157.167969 C 197.976562 156.671875 197.800781 156.179688 197.566406 155.691406 L 197.601562 155.691406 L 197.691406 155.546875 C 200.054688 151.769531 199.699219 140.890625 199.664062 139.933594 C 200.410156 137.105469 199.101562 134.914062 199.042969 134.820312 L 198.9375 134.644531 L 198.730469 134.660156 C 194.101562 135.019531 183.332031 144.5 182.875 144.902344 L 182.742188 145.023438 L 182.765625 145.199219 C 182.769531 145.222656 182.773438 145.246094 182.777344 145.273438 C 180.523438 144.890625 178.976562 144.820312 178.179688 144.820312 C 177.816406 144.820312 177.589844 144.835938 177.515625 144.84375 C 177.4375 144.835938 177.214844 144.820312 176.847656 144.820312 C 176.117188 144.820312 174.761719 144.878906 172.804688 145.183594 L 172.824219 145.023438 L 172.691406 144.902344 C 172.234375 144.5 161.460938 135.019531 156.835938 134.660156 L 156.628906 134.644531 L 156.519531 134.820312 C 156.464844 134.914062 155.15625 137.105469 155.898438 139.933594 C 155.863281 140.867188 155.527344 151.226562 157.699219 155.246094 C 157.34375 155.878906 157.085938 156.519531 156.960938 157.167969 C 156.75 157.753906 154.394531 164.3125 153.839844 170.0625 C 152.988281 169.929688 152.175781 169.839844 151.449219 169.785156 C 150.902344 169.742188 150.402344 169.742188 149.960938 169.75 C 149.515625 169.769531 149.128906 169.785156 148.816406 169.828125 C 148.496094 169.855469 148.253906 169.914062 148.085938 169.945312 C 147.917969 169.976562 147.832031 169.992188 147.832031 169.992188 C 147.832031 169.992188 147.921875 169.984375 148.089844 169.96875 C 148.257812 169.953125 148.503906 169.921875 148.820312 169.917969 C 149.136719 169.894531 149.519531 169.90625 149.957031 169.917969 C 150.394531 169.945312 150.890625 169.980469 151.425781 170.039062 C 151.960938 170.097656 152.539062 170.183594 153.148438 170.292969 C 153.367188 170.332031 153.585938 170.375 153.808594 170.421875 C 153.730469 171.378906 153.703125 172.304688 153.746094 173.175781 C 153.554688 173.167969 153.363281 173.160156 153.175781 173.152344 C 152.832031 173.148438 152.492188 173.144531 152.167969 173.140625 C 151.511719 173.144531 150.890625 173.167969 150.320312 173.203125 C 150.035156 173.226562 149.761719 173.246094 149.5 173.273438 C 149.242188 173.308594 149 173.34375 148.765625 173.375 C 148.308594 173.457031 147.910156 173.527344 147.589844 173.617188 C 147.261719 173.6875 147.019531 173.78125 146.847656 173.839844 C 146.679688 173.894531 146.589844 173.925781 146.589844 173.925781 C 146.589844 173.925781 146.679688 173.902344 146.855469 173.863281 C 147.027344 173.820312 147.28125 173.753906 147.605469 173.703125 C 147.929688 173.632812 148.328125 173.589844 148.789062 173.539062 C 149.019531 173.523438 149.261719 173.507812 149.519531 173.488281 C 149.777344 173.480469 150.046875 173.46875 150.332031 173.457031 C 150.898438 173.445312 151.511719 173.449219 152.160156 173.472656 C 152.679688 173.492188 153.21875 173.527344 153.773438 173.566406 C 153.808594 174.046875 153.871094 174.511719 153.960938 174.949219 L 153.960938 174.957031 L 153.964844 174.964844 C 153.980469 175.035156 154.226562 175.953125 154.882812 177.269531 C 154.65625 177.300781 154.429688 177.328125 154.207031 177.359375 C 153.851562 177.414062 153.503906 177.464844 153.164062 177.519531 C 152.824219 177.585938 152.496094 177.648438 152.171875 177.707031 C 151.53125 177.839844 150.925781 177.980469 150.375 178.128906 C 150.101562 178.207031 149.835938 178.277344 149.585938 178.359375 C 149.339844 178.441406 149.105469 178.523438 148.886719 178.601562 C 148.453125 178.769531 148.078125 178.917969 147.777344 179.070312 C 147.472656 179.203125 147.25 179.34375 147.09375 179.429688 C 146.941406 179.519531 146.859375 179.570312 146.859375 179.570312 C 146.859375 179.570312 146.945312 179.527344 147.105469 179.453125 C 147.265625 179.375 147.5 179.265625 147.8125 179.148438 C 148.117188 179.019531 148.5 178.898438 148.9375 178.757812 C 149.160156 178.699219 149.398438 178.632812 149.648438 178.566406 C 149.898438 178.507812 150.160156 178.441406 150.4375 178.375 C 150.988281 178.25 151.589844 178.136719 152.230469 178.03125 C 152.875 177.929688 153.554688 177.839844 154.257812 177.753906 C 154.527344 177.722656 154.804688 177.691406 155.085938 177.664062 C 155.449219 178.351562 155.917969 179.125 156.515625 179.929688 C 156.457031 179.941406 156.398438 179.957031 156.34375 179.96875 C 155.617188 180.144531 154.90625 180.347656 154.21875 180.546875 C 153.878906 180.652344 153.542969 180.757812 153.214844 180.859375 C 152.890625 180.972656 152.570312 181.082031 152.261719 181.191406 C 151.644531 181.417969 151.070312 181.644531 150.542969 181.875 C 150.285156 181.996094 150.03125 182.101562 149.796875 182.21875 C 149.566406 182.339844 149.347656 182.453125 149.140625 182.558594 C 148.738281 182.792969 148.386719 182.996094 148.113281 183.1875 C 147.832031 183.363281 147.632812 183.539062 147.492188 183.648438 C 147.355469 183.757812 147.28125 183.816406 147.28125 183.816406 C 147.28125 183.816406 147.359375 183.765625 147.507812 183.667969 C 147.65625 183.570312 147.871094 183.421875 148.160156 183.261719 C 148.445312 183.089844 148.804688 182.914062 149.21875 182.710938 C 149.429688 182.617188 149.652344 182.519531 149.890625 182.414062 C 150.128906 182.316406 150.378906 182.214844 150.640625 182.109375 C 151.171875 181.90625 151.75 181.703125 152.367188 181.503906 C 152.988281 181.308594 153.644531 181.121094 154.328125 180.929688 C 155.011719 180.742188 155.722656 180.566406 156.449219 180.394531 C 156.566406 180.363281 156.6875 180.339844 156.804688 180.3125 C 157.046875 180.621094 157.304688 180.933594 157.585938 181.246094 C 160.136719 184.101562 164.886719 187.503906 173.039062 187.503906 C 174.464844 187.503906 175.972656 187.398438 177.515625 187.191406 C 179.058594 187.398438 180.566406 187.503906 181.992188 187.503906 C 190.144531 187.503906 194.894531 184.101562 197.445312 181.246094 C 197.742188 180.914062 198.015625 180.582031 198.273438 180.253906 C 198.472656 180.300781 198.675781 180.34375 198.875 180.394531 C 199.597656 180.566406 200.308594 180.742188 200.992188 180.929688 C 201.675781 181.121094 202.335938 181.308594 202.953125 181.503906 C 203.570312 181.703125 204.152344 181.90625 204.679688 182.109375 C 204.941406 182.214844 205.191406 182.316406 205.433594 182.414062 C 205.667969 182.519531 205.890625 182.617188 206.101562 182.710938 C 206.515625 182.914062 206.878906 183.089844 207.160156 183.261719 C 207.449219 183.421875 207.664062 183.570312 207.8125 183.667969 C 207.960938 183.765625 208.042969 183.816406 208.042969 183.816406 C 208.042969 183.816406 207.964844 183.757812 207.828125 183.648438 C 207.6875 183.539062 207.488281 183.363281 207.207031 183.1875 C 206.933594 182.996094 206.582031 182.792969 206.179688 182.558594 C 205.972656 182.453125 205.753906 182.339844 205.523438 182.21875 C 205.289062 182.101562 205.035156 181.996094 204.777344 181.875 C 204.25 181.644531 203.675781 181.417969 203.058594 181.191406 C 202.75 181.082031 202.433594 180.972656 202.109375 180.859375 C 201.777344 180.757812 201.445312 180.652344 201.101562 180.546875 C 200.414062 180.347656 199.707031 180.144531 198.976562 179.96875 C 198.839844 179.9375 198.699219 179.902344 198.5625 179.871094 C 199.144531 179.074219 199.601562 178.3125 199.960938 177.636719 C 200.332031 177.671875 200.703125 177.710938 201.066406 177.753906 C 201.769531 177.839844 202.449219 177.929688 203.089844 178.03125 C 203.730469 178.136719 204.332031 178.25 204.886719 178.375 C 205.160156 178.441406 205.425781 178.503906 205.675781 178.566406 C 205.925781 178.632812 206.160156 178.699219 206.382812 178.757812 C 206.820312 178.898438 207.203125 179.019531 207.511719 179.148438 C 207.820312 179.265625 208.054688 179.375 208.214844 179.453125 C 208.378906 179.527344 208.464844 179.570312 208.464844 179.570312 C 208.464844 179.570312 208.382812 179.519531 208.226562 179.429688 C 208.070312 179.34375 207.851562 179.203125 207.542969 179.070312 C 207.246094 178.917969 206.867188 178.769531 206.433594 178.601562 C 206.214844 178.523438 205.984375 178.441406 205.734375 178.359375 C 205.488281 178.277344 205.222656 178.207031 204.945312 178.128906 C 204.394531 177.980469 203.792969 177.839844 203.148438 177.707031 C 202.824219 177.648438 202.496094 177.585938 202.15625 177.519531 C 201.816406 177.464844 201.472656 177.414062 201.117188 177.359375 C 200.804688 177.316406 200.484375 177.273438 200.164062 177.234375 C 200.808594 175.9375 201.050781 175.035156 201.066406 174.964844 L 201.070312 174.957031 " fill-opacity="1" fill-rule="nonzero"/></g><g fill="#ffffff" fill-opacity="1"><g transform="translate(171.156204, 230.723656)"><g><path d="M 3.625 0 C 3.113281 0 2.679688 -0.164062 2.328125 -0.5 C 1.984375 -0.832031 1.757812 -1.378906 1.65625 -2.140625 C 1.5625 -2.910156 1.515625 -5.207031 1.515625 -9.03125 C 1.515625 -12.851562 1.578125 -15.351562 1.703125 -16.53125 C 1.847656 -18.039062 2.488281 -18.8125 3.625 -18.84375 C 4.914062 -18.882812 10.285156 -18.90625 19.734375 -18.90625 C 20.796875 -18.90625 21.328125 -18.226562 21.328125 -16.875 C 21.328125 -15.8125 20.859375 -15.28125 19.921875 -15.28125 L 13.984375 -15.28125 C 13.609375 -15.28125 13.304688 -15.15625 13.078125 -14.90625 C 12.859375 -14.65625 12.75 -14.332031 12.75 -13.9375 L 12.75 -11.984375 C 12.75 -11.441406 12.988281 -11.171875 13.46875 -11.171875 L 18.390625 -11.171875 C 18.671875 -11.171875 18.890625 -11.144531 19.046875 -11.09375 C 19.203125 -11.039062 19.34375 -10.882812 19.46875 -10.625 C 19.59375 -10.363281 19.65625 -9.9375 19.65625 -9.34375 C 19.65625 -8.75 19.550781 -8.351562 19.34375 -8.15625 C 19.132812 -7.957031 18.796875 -7.859375 18.328125 -7.859375 L 13.9375 -7.859375 C 13.476562 -7.859375 13.164062 -7.742188 13 -7.515625 C 12.832031 -7.296875 12.75 -6.953125 12.75 -6.484375 L 12.75 -5.15625 C 12.75 -4.382812 13.113281 -4 13.84375 -4 L 20.578125 -4 C 20.898438 -4 21.1875 -3.898438 21.4375 -3.703125 C 21.6875 -3.515625 21.8125 -3.101562 21.8125 -2.46875 C 21.8125 -1.832031 21.65625 -1.257812 21.34375 -0.75 C 21.039062 -0.25 20.6875 0 20.28125 0 Z M 3.625 0 "/></g></g></g><g fill="#ffffff" fill-opacity="1"><g transform="translate(192.162217, 230.723656)"><g><path d="M 16.984375 -1.640625 C 16.960938 -1.242188 16.789062 -0.878906 16.46875 -0.546875 C 16.144531 -0.210938 15.710938 -0.03125 15.171875 0 C 14.148438 0.0703125 12.914062 0.109375 11.46875 0.109375 C 10.03125 0.109375 8.707031 0.0703125 7.5 0 C 6.96875 -0.03125 6.535156 -0.210938 6.203125 -0.546875 C 5.878906 -0.878906 5.710938 -1.242188 5.703125 -1.640625 C 5.640625 -4.378906 5.609375 -6.71875 5.609375 -8.65625 C 5.609375 -10.59375 5.617188 -12.007812 5.640625 -12.90625 C 5.640625 -13.59375 5.332031 -13.9375 4.71875 -13.9375 L 2.296875 -13.9375 C 1.921875 -13.9375 1.613281 -14.023438 1.375 -14.203125 C 1.144531 -14.378906 1.015625 -14.691406 0.984375 -15.140625 C 0.953125 -15.597656 0.9375 -16.066406 0.9375 -16.546875 C 0.9375 -17.035156 0.953125 -17.453125 0.984375 -17.796875 C 1.015625 -18.148438 1.160156 -18.421875 1.421875 -18.609375 C 1.679688 -18.804688 1.960938 -18.90625 2.265625 -18.90625 C 4.609375 -18.9375 7.773438 -18.953125 11.765625 -18.953125 C 15.765625 -18.953125 18.628906 -18.9375 20.359375 -18.90625 C 20.660156 -18.882812 20.941406 -18.78125 21.203125 -18.59375 C 21.460938 -18.414062 21.609375 -18.148438 21.640625 -17.796875 C 21.671875 -17.453125 21.6875 -17.046875 21.6875 -16.578125 C 21.6875 -16.109375 21.675781 -15.660156 21.65625 -15.234375 C 21.601562 -14.421875 21.160156 -14.015625 20.328125 -14.015625 L 17.90625 -14.015625 C 17.289062 -14.015625 16.984375 -13.695312 16.984375 -13.0625 C 17.035156 -10.800781 17.0625 -8.75 17.0625 -6.90625 C 17.0625 -5.070312 17.035156 -3.316406 16.984375 -1.640625 Z M 16.984375 -1.640625 "/></g></g></g><g fill="#ffffff" fill-opacity="1"><g transform="translate(213.006226, 230.723656)"><g/></g></g><g fill="#ffffff" fill-opacity="1"><g transform="translate(222.024233, 230.723656)"><g><path d="M 11.15625 0.546875 C 7.914062 0.546875 5.351562 -0.273438 3.46875 -1.921875 C 1.582031 -3.578125 0.640625 -5.90625 0.640625 -8.90625 C 0.640625 -10.738281 0.941406 -12.347656 1.546875 -13.734375 C 2.148438 -15.128906 3.003906 -16.238281 4.109375 -17.0625 C 6.285156 -18.695312 9.15625 -19.515625 12.71875 -19.515625 C 15.019531 -19.515625 17.320312 -19.203125 19.625 -18.578125 C 20.507812 -18.285156 20.953125 -17.570312 20.953125 -16.4375 C 20.953125 -14.894531 20.46875 -14.125 19.5 -14.125 C 19.332031 -14.125 18.796875 -14.191406 17.890625 -14.328125 C 16.992188 -14.472656 16.367188 -14.546875 16.015625 -14.546875 C 14.734375 -14.546875 13.742188 -14.097656 13.046875 -13.203125 C 12.359375 -12.316406 12.015625 -11.257812 12.015625 -10.03125 C 12.015625 -8.800781 12.335938 -7.71875 12.984375 -6.78125 C 13.628906 -5.84375 14.515625 -5.351562 15.640625 -5.3125 C 16.390625 -5.28125 17.726562 -5.265625 19.65625 -5.265625 C 20.59375 -5.265625 21.101562 -4.820312 21.1875 -3.9375 C 21.25 -3.613281 21.28125 -3.285156 21.28125 -2.953125 C 21.28125 -2.617188 21.25 -2.28125 21.1875 -1.9375 C 21.082031 -1.289062 20.578125 -0.816406 19.671875 -0.515625 C 18.773438 -0.222656 17.476562 0.0234375 15.78125 0.234375 C 14.09375 0.441406 12.550781 0.546875 11.15625 0.546875 Z M 11.15625 0.546875 "/></g></g></g><g fill="#ffffff" fill-opacity="1"><g transform="translate(242.43624, 230.723656)"><g><path d="M 12.09375 -16.0625 L 12.046875 -13.609375 L 12.046875 -8.390625 C 12.046875 -7.640625 12.28125 -7.054688 12.75 -6.640625 C 13.21875 -6.222656 13.765625 -6.015625 14.390625 -6.015625 C 15.023438 -6.015625 15.570312 -6.222656 16.03125 -6.640625 C 16.488281 -7.054688 16.71875 -7.640625 16.71875 -8.390625 L 16.71875 -16.4375 C 16.71875 -17.289062 16.828125 -17.914062 17.046875 -18.3125 C 17.273438 -18.707031 17.765625 -18.90625 18.515625 -18.90625 L 21 -18.90625 C 21.582031 -18.90625 21.976562 -18.734375 22.1875 -18.390625 C 22.601562 -17.773438 22.8125 -15.40625 22.8125 -11.28125 C 22.8125 -9.9375 22.796875 -8.90625 22.765625 -8.1875 C 22.710938 -6.726562 22.375 -5.425781 21.75 -4.28125 C 21.125 -3.132812 20.328125 -2.21875 19.359375 -1.53125 C 17.398438 -0.144531 15.175781 0.546875 12.6875 0.546875 C 9.414062 0.546875 6.707031 -0.21875 4.5625 -1.75 C 3.476562 -2.53125 2.625 -3.5625 2 -4.84375 C 1.382812 -6.132812 1.066406 -7.632812 1.046875 -9.34375 C 1.035156 -10.1875 1.03125 -11.429688 1.03125 -13.078125 C 1.03125 -14.722656 1.050781 -15.910156 1.09375 -16.640625 C 1.132812 -17.367188 1.273438 -17.925781 1.515625 -18.3125 C 1.765625 -18.707031 2.257812 -18.90625 3 -18.90625 L 10.203125 -18.90625 C 10.921875 -18.90625 11.398438 -18.710938 11.640625 -18.328125 C 11.941406 -17.847656 12.09375 -17.09375 12.09375 -16.0625 Z M 12.09375 -16.0625 "/></g></g></g><g fill="#ffffff" fill-opacity="1"><g transform="translate(264.549251, 230.723656)"><g><path d="M 19.921875 -18.90625 L 22.8125 -18.90625 C 23.425781 -18.90625 23.851562 -18.804688 24.09375 -18.609375 C 24.34375 -18.410156 24.472656 -18.003906 24.484375 -17.390625 C 24.597656 -14.648438 24.65625 -11.703125 24.65625 -8.546875 C 24.65625 -5.398438 24.59375 -3.097656 24.46875 -1.640625 C 24.425781 -1.234375 24.265625 -0.859375 23.984375 -0.515625 C 23.710938 -0.171875 23.347656 0 22.890625 0 L 18.390625 0 C 17.753906 0 17.0625 -0.222656 16.3125 -0.671875 C 12.132812 -3.140625 9.503906 -4.644531 8.421875 -5.1875 C 8.203125 -5.269531 8.023438 -5.234375 7.890625 -5.078125 C 7.753906 -4.929688 7.6875 -4.648438 7.6875 -4.234375 L 7.6875 -1.234375 C 7.6875 -0.898438 7.5625 -0.632812 7.3125 -0.4375 C 6.9375 -0.125 5.96875 0.03125 4.40625 0.03125 C 3.96875 0.03125 3.539062 0.0195312 3.125 0 C 2.71875 -0.03125 2.382812 -0.21875 2.125 -0.5625 C 1.863281 -0.90625 1.722656 -1.273438 1.703125 -1.671875 C 1.648438 -3.828125 1.625 -6.539062 1.625 -9.8125 C 1.625 -13.082031 1.628906 -15.210938 1.640625 -16.203125 C 1.660156 -17.191406 1.78125 -17.890625 2 -18.296875 C 2.21875 -18.703125 2.628906 -18.90625 3.234375 -18.90625 L 6.203125 -18.90625 C 6.816406 -18.90625 7.445312 -18.734375 8.09375 -18.390625 C 13.675781 -15.492188 16.9375 -13.8125 17.875 -13.34375 C 18.175781 -13.195312 18.414062 -13.175781 18.59375 -13.28125 C 18.78125 -13.394531 18.875 -13.59375 18.875 -13.875 L 18.875 -17.65625 C 18.875 -18.019531 18.96875 -18.316406 19.15625 -18.546875 C 19.34375 -18.785156 19.597656 -18.90625 19.921875 -18.90625 Z M 19.921875 -18.90625 "/></g></g></g><g fill="#ffffff" fill-opacity="1"><g transform="translate(288.822254, 230.723656)"><g><path d="M 17.03125 -14.53125 C 15.414062 -14.53125 14.28125 -14.109375 13.625 -13.265625 C 12.96875 -12.429688 12.640625 -11.101562 12.640625 -9.28125 C 12.640625 -6.425781 13.472656 -5 15.140625 -5 C 15.484375 -5 15.710938 -5.003906 15.828125 -5.015625 C 15.609375 -5.015625 15.429688 -5.394531 15.296875 -6.15625 C 15.160156 -6.914062 15.09375 -7.707031 15.09375 -8.53125 C 15.09375 -9.363281 15.316406 -9.898438 15.765625 -10.140625 C 16.210938 -10.378906 16.835938 -10.5 17.640625 -10.5 C 18.441406 -10.5 19 -10.492188 19.3125 -10.484375 C 19.632812 -10.472656 19.992188 -10.4375 20.390625 -10.375 C 20.796875 -10.3125 21.109375 -10.21875 21.328125 -10.09375 C 21.835938 -9.8125 22.09375 -9.378906 22.09375 -8.796875 L 22.09375 -4.859375 C 22.09375 -3.453125 21.835938 -2.332031 21.328125 -1.5 C 20.828125 -0.664062 19.882812 -0.175781 18.5 -0.03125 C 16.550781 0.164062 13.578125 0.265625 9.578125 0.265625 C 7.984375 0.265625 6.613281 0.015625 5.46875 -0.484375 C 4.320312 -0.984375 3.4375 -1.6875 2.8125 -2.59375 C 1.65625 -4.269531 1.078125 -6.398438 1.078125 -8.984375 C 1.078125 -11.566406 1.90625 -13.863281 3.5625 -15.875 C 5.21875 -17.894531 7.421875 -18.972656 10.171875 -19.109375 C 12.066406 -19.222656 13.4375 -19.28125 14.28125 -19.28125 C 17.363281 -19.28125 19.550781 -19.09375 20.84375 -18.71875 C 21.726562 -18.457031 22.171875 -17.742188 22.171875 -16.578125 C 22.171875 -15.015625 21.710938 -14.234375 20.796875 -14.234375 C 20.503906 -14.242188 19.925781 -14.296875 19.0625 -14.390625 C 18.195312 -14.484375 17.519531 -14.53125 17.03125 -14.53125 Z M 17.03125 -14.53125 "/></g></g></g></svg>