<svg xmlns="http://www.w3.org/2000/svg" xmlns:xlink="http://www.w3.org/1999/xlink" width="100" zoomAndPan="magnify" viewBox="0 0 75 60" height="80" preserveAspectRatio="xMidYMid meet" version="1.0"><defs><g/><clipPath id="b4af617ff5"><path d="M 18.839844 15.003906 L 39.839844 15.003906 L 39.839844 33.003906 L 18.839844 33.003906 Z M 18.839844 15.003906 " clip-rule="nonzero"/></clipPath></defs><rect x="-7.5" width="90" fill="#ffffff" y="-6" height="72" fill-opacity="1"/><rect x="-7.5" width="90" fill="#ffffff" y="-6" height="72" fill-opacity="1"/><g fill="#dd551b" fill-opacity="1"><g transform="translate(0.000000000000010658, 48.377101)"><g><path d="M 26.234375 -7.15625 L 26.234375 -2.5 C 26.234375 -0.90625 25.148438 -0.0546875 22.984375 0.046875 C 20.816406 0.160156 18.46875 0.21875 15.9375 0.21875 C 13.40625 0.21875 10.515625 0.125 7.265625 -0.0625 C 6.191406 -0.132812 5.332031 -0.5 4.6875 -1.15625 C 4.039062 -1.820312 3.660156 -2.582031 3.546875 -3.4375 C 3.253906 -6.6875 3.109375 -11.796875 3.109375 -18.765625 C 3.109375 -25.734375 3.21875 -30.804688 3.4375 -33.984375 C 3.65625 -37.171875 5.265625 -38.78125 8.265625 -38.8125 C 11.703125 -38.882812 15.378906 -38.921875 19.296875 -38.921875 C 23.210938 -38.921875 27.453125 -38.863281 32.015625 -38.75 C 36.585938 -38.644531 40.3125 -36.925781 43.1875 -33.59375 C 46.070312 -30.269531 47.515625 -26.613281 47.515625 -22.625 C 47.515625 -18.632812 46.238281 -15.34375 43.6875 -12.75 C 41.144531 -10.164062 37.414062 -8.875 32.5 -8.875 L 28.171875 -8.875 C 27.691406 -8.875 27.25 -8.707031 26.84375 -8.375 C 26.4375 -8.039062 26.234375 -7.632812 26.234375 -7.15625 Z M 26.171875 -27.234375 L 26.28125 -16.96875 C 26.28125 -16.269531 26.671875 -15.921875 27.453125 -15.921875 C 29.742188 -15.921875 31.546875 -16.554688 32.859375 -17.828125 C 34.171875 -19.097656 34.828125 -20.601562 34.828125 -22.34375 C 34.828125 -24.082031 34.207031 -25.578125 32.96875 -26.828125 C 31.726562 -28.085938 29.90625 -28.71875 27.5 -28.71875 C 26.613281 -28.71875 26.171875 -28.222656 26.171875 -27.234375 Z M 26.171875 -27.234375 "/></g></g></g><g clip-path="url(#b4af617ff5)"><path fill="#ffffff" d="M 37.472656 28.777344 C 37.503906 28.628906 37.523438 28.472656 37.539062 28.308594 C 37.761719 28.292969 37.980469 28.28125 38.1875 28.269531 C 38.410156 28.261719 38.621094 28.261719 38.8125 28.265625 C 38.910156 28.269531 39.003906 28.273438 39.089844 28.277344 C 39.179688 28.285156 39.261719 28.289062 39.339844 28.292969 C 39.496094 28.3125 39.632812 28.328125 39.742188 28.351562 C 39.855469 28.367188 39.941406 28.390625 40 28.40625 C 40.058594 28.417969 40.089844 28.425781 40.089844 28.425781 C 40.089844 28.425781 40.0625 28.417969 40.003906 28.398438 C 39.945312 28.378906 39.863281 28.34375 39.75 28.320312 C 39.640625 28.289062 39.503906 28.265625 39.347656 28.238281 C 39.269531 28.226562 39.183594 28.214844 39.097656 28.203125 C 39.007812 28.195312 38.914062 28.1875 38.816406 28.179688 C 38.621094 28.167969 38.410156 28.160156 38.1875 28.160156 C 38.074219 28.160156 37.960938 28.160156 37.839844 28.160156 C 37.746094 28.167969 37.644531 28.171875 37.546875 28.175781 C 37.5625 27.882812 37.554688 27.570312 37.527344 27.25 C 37.636719 27.226562 37.746094 27.203125 37.851562 27.183594 C 38.058594 27.148438 38.253906 27.117188 38.4375 27.097656 C 38.621094 27.078125 38.792969 27.066406 38.941406 27.058594 C 39.089844 27.054688 39.222656 27.050781 39.328125 27.058594 C 39.4375 27.058594 39.519531 27.070312 39.578125 27.074219 C 39.636719 27.078125 39.667969 27.082031 39.667969 27.082031 C 39.667969 27.082031 39.636719 27.078125 39.578125 27.066406 C 39.523438 27.054688 39.441406 27.035156 39.332031 27.027344 C 39.222656 27.011719 39.089844 27.003906 38.941406 27 C 38.789062 26.996094 38.617188 26.996094 38.429688 27.011719 C 38.15625 27.03125 37.84375 27.066406 37.515625 27.121094 C 37.328125 25.152344 36.519531 22.898438 36.449219 22.699219 C 36.414062 22.53125 36.355469 22.363281 36.277344 22.195312 L 36.289062 22.195312 L 36.320312 22.144531 C 37.125 20.855469 37.003906 17.136719 36.992188 16.8125 C 37.25 15.84375 36.800781 15.097656 36.78125 15.066406 L 36.746094 15.003906 L 36.675781 15.011719 C 35.09375 15.132812 31.414062 18.371094 31.257812 18.507812 L 31.210938 18.550781 L 31.21875 18.609375 C 31.21875 18.621094 31.222656 18.628906 31.222656 18.636719 C 30.453125 18.503906 29.925781 18.480469 29.652344 18.480469 C 29.527344 18.480469 29.453125 18.488281 29.425781 18.488281 C 29.398438 18.488281 29.324219 18.480469 29.199219 18.480469 C 28.949219 18.480469 28.484375 18.5 27.816406 18.605469 L 27.824219 18.550781 L 27.777344 18.507812 C 27.621094 18.371094 23.941406 15.132812 22.359375 15.011719 L 22.289062 15.003906 L 22.25 15.066406 C 22.230469 15.097656 21.785156 15.84375 22.039062 16.8125 C 22.027344 17.128906 21.914062 20.671875 22.65625 22.042969 C 22.53125 22.257812 22.445312 22.480469 22.402344 22.699219 C 22.328125 22.898438 21.523438 25.140625 21.335938 27.105469 C 21.042969 27.058594 20.769531 27.03125 20.519531 27.011719 C 20.332031 26.996094 20.160156 26.996094 20.011719 27 C 19.859375 27.003906 19.726562 27.011719 19.617188 27.027344 C 19.511719 27.035156 19.425781 27.054688 19.371094 27.066406 C 19.3125 27.078125 19.28125 27.082031 19.28125 27.082031 C 19.28125 27.082031 19.3125 27.078125 19.371094 27.074219 C 19.429688 27.070312 19.511719 27.058594 19.621094 27.058594 C 19.730469 27.050781 19.859375 27.054688 20.007812 27.058594 C 20.160156 27.066406 20.328125 27.078125 20.511719 27.097656 C 20.695312 27.117188 20.890625 27.148438 21.101562 27.183594 C 21.171875 27.199219 21.25 27.214844 21.324219 27.230469 C 21.296875 27.554688 21.289062 27.871094 21.304688 28.171875 C 21.238281 28.167969 21.171875 28.164062 21.109375 28.160156 C 20.992188 28.160156 20.875 28.160156 20.765625 28.160156 C 20.539062 28.160156 20.328125 28.167969 20.132812 28.179688 C 20.035156 28.1875 19.941406 28.195312 19.851562 28.203125 C 19.765625 28.214844 19.679688 28.226562 19.601562 28.238281 C 19.445312 28.265625 19.308594 28.289062 19.199219 28.320312 C 19.089844 28.34375 19.003906 28.378906 18.945312 28.398438 C 18.890625 28.417969 18.859375 28.425781 18.859375 28.425781 C 18.859375 28.425781 18.890625 28.417969 18.949219 28.40625 C 19.007812 28.390625 19.09375 28.367188 19.207031 28.351562 C 19.316406 28.328125 19.453125 28.3125 19.609375 28.292969 C 19.6875 28.289062 19.769531 28.285156 19.859375 28.277344 C 19.949219 28.273438 20.039062 28.269531 20.136719 28.265625 C 20.332031 28.261719 20.539062 28.261719 20.761719 28.269531 C 20.9375 28.277344 21.125 28.289062 21.3125 28.304688 C 21.324219 28.46875 21.347656 28.625 21.375 28.777344 L 21.378906 28.78125 C 21.382812 28.804688 21.46875 29.121094 21.691406 29.570312 C 21.613281 29.578125 21.535156 29.589844 21.460938 29.597656 C 21.339844 29.617188 21.222656 29.636719 21.105469 29.652344 C 20.988281 29.675781 20.875 29.699219 20.765625 29.71875 C 20.546875 29.765625 20.339844 29.8125 20.152344 29.863281 C 20.058594 29.890625 19.96875 29.914062 19.882812 29.941406 C 19.796875 29.96875 19.71875 29.996094 19.644531 30.023438 C 19.496094 30.082031 19.367188 30.132812 19.265625 30.183594 C 19.160156 30.230469 19.082031 30.277344 19.03125 30.308594 C 18.976562 30.339844 18.949219 30.355469 18.949219 30.355469 C 18.949219 30.355469 18.980469 30.339844 19.035156 30.316406 C 19.089844 30.289062 19.167969 30.25 19.277344 30.210938 C 19.378906 30.167969 19.511719 30.125 19.660156 30.078125 C 19.738281 30.058594 19.816406 30.035156 19.902344 30.011719 C 19.988281 29.992188 20.078125 29.96875 20.171875 29.945312 C 20.363281 29.90625 20.566406 29.863281 20.785156 29.828125 C 21.003906 29.792969 21.238281 29.765625 21.476562 29.734375 C 21.570312 29.722656 21.664062 29.714844 21.761719 29.703125 C 21.886719 29.9375 22.046875 30.203125 22.25 30.476562 C 22.230469 30.480469 22.210938 30.488281 22.191406 30.492188 C 21.941406 30.550781 21.699219 30.621094 21.464844 30.6875 C 21.347656 30.726562 21.234375 30.761719 21.121094 30.796875 C 21.011719 30.835938 20.902344 30.871094 20.796875 30.910156 C 20.585938 30.984375 20.390625 31.0625 20.210938 31.140625 C 20.121094 31.183594 20.035156 31.21875 19.953125 31.257812 C 19.875 31.300781 19.800781 31.339844 19.730469 31.375 C 19.59375 31.457031 19.472656 31.523438 19.378906 31.589844 C 19.28125 31.652344 19.214844 31.710938 19.167969 31.746094 C 19.121094 31.785156 19.09375 31.804688 19.09375 31.804688 C 19.09375 31.804688 19.121094 31.789062 19.171875 31.753906 C 19.222656 31.722656 19.296875 31.671875 19.394531 31.617188 C 19.492188 31.558594 19.617188 31.496094 19.757812 31.425781 C 19.828125 31.394531 19.90625 31.363281 19.984375 31.328125 C 20.066406 31.292969 20.152344 31.257812 20.242188 31.222656 C 20.421875 31.152344 20.621094 31.082031 20.832031 31.015625 C 21.042969 30.949219 21.269531 30.882812 21.503906 30.820312 C 21.734375 30.753906 21.980469 30.695312 22.226562 30.636719 C 22.265625 30.625 22.308594 30.617188 22.347656 30.609375 C 22.429688 30.714844 22.519531 30.820312 22.617188 30.929688 C 23.488281 31.902344 25.109375 33.066406 27.894531 33.066406 C 28.382812 33.066406 28.898438 33.03125 29.425781 32.960938 C 29.953125 33.03125 30.46875 33.066406 30.953125 33.066406 C 33.742188 33.066406 35.363281 31.902344 36.234375 30.929688 C 36.335938 30.8125 36.429688 30.699219 36.515625 30.589844 C 36.585938 30.605469 36.65625 30.621094 36.722656 30.636719 C 36.96875 30.695312 37.214844 30.753906 37.449219 30.820312 C 37.679688 30.882812 37.90625 30.949219 38.117188 31.015625 C 38.328125 31.082031 38.527344 31.152344 38.707031 31.222656 C 38.796875 31.257812 38.882812 31.292969 38.964844 31.328125 C 39.042969 31.363281 39.121094 31.394531 39.191406 31.425781 C 39.335938 31.496094 39.457031 31.558594 39.554688 31.617188 C 39.652344 31.671875 39.726562 31.722656 39.777344 31.753906 C 39.828125 31.789062 39.855469 31.804688 39.855469 31.804688 C 39.855469 31.804688 39.828125 31.785156 39.78125 31.746094 C 39.734375 31.710938 39.667969 31.652344 39.570312 31.589844 C 39.476562 31.523438 39.355469 31.457031 39.21875 31.375 C 39.148438 31.339844 39.074219 31.300781 38.996094 31.257812 C 38.914062 31.21875 38.828125 31.183594 38.738281 31.140625 C 38.5625 31.0625 38.363281 30.984375 38.152344 30.910156 C 38.046875 30.871094 37.9375 30.835938 37.828125 30.796875 C 37.714844 30.761719 37.601562 30.726562 37.484375 30.6875 C 37.25 30.621094 37.007812 30.550781 36.757812 30.492188 C 36.710938 30.480469 36.664062 30.46875 36.617188 30.457031 C 36.816406 30.1875 36.972656 29.925781 37.09375 29.695312 C 37.222656 29.707031 37.347656 29.71875 37.472656 29.734375 C 37.710938 29.765625 37.945312 29.792969 38.164062 29.828125 C 38.382812 29.863281 38.589844 29.90625 38.777344 29.945312 C 38.871094 29.96875 38.960938 29.992188 39.046875 30.011719 C 39.132812 30.035156 39.210938 30.058594 39.289062 30.078125 C 39.4375 30.125 39.570312 30.167969 39.675781 30.210938 C 39.78125 30.25 39.859375 30.289062 39.914062 30.316406 C 39.96875 30.339844 40 30.355469 40 30.355469 C 40 30.355469 39.972656 30.339844 39.917969 30.308594 C 39.867188 30.277344 39.789062 30.230469 39.6875 30.183594 C 39.585938 30.132812 39.453125 30.082031 39.308594 30.023438 C 39.230469 29.996094 39.152344 29.96875 39.066406 29.941406 C 38.984375 29.914062 38.890625 29.890625 38.796875 29.863281 C 38.609375 29.8125 38.402344 29.761719 38.183594 29.71875 C 38.074219 29.699219 37.960938 29.675781 37.84375 29.652344 C 37.730469 29.636719 37.609375 29.617188 37.488281 29.597656 C 37.382812 29.585938 37.273438 29.570312 37.164062 29.558594 C 37.382812 29.113281 37.464844 28.804688 37.472656 28.78125 L 37.472656 28.777344 " fill-opacity="1" fill-rule="nonzero"/></g><g fill="#dd551b" fill-opacity="1"><g transform="translate(26.702207, 48.452469)"><g><path d="M 1.234375 0 C 1.066406 0 0.921875 -0.0546875 0.796875 -0.171875 C 0.679688 -0.285156 0.601562 -0.472656 0.5625 -0.734375 C 0.53125 -0.992188 0.515625 -1.773438 0.515625 -3.078125 C 0.515625 -4.390625 0.535156 -5.242188 0.578125 -5.640625 C 0.628906 -6.160156 0.847656 -6.425781 1.234375 -6.4375 C 1.679688 -6.445312 3.515625 -6.453125 6.734375 -6.453125 C 7.097656 -6.453125 7.28125 -6.222656 7.28125 -5.765625 C 7.28125 -5.398438 7.117188 -5.21875 6.796875 -5.21875 L 4.78125 -5.21875 C 4.644531 -5.21875 4.535156 -5.171875 4.453125 -5.078125 C 4.378906 -4.992188 4.34375 -4.882812 4.34375 -4.75 L 4.34375 -4.09375 C 4.34375 -3.90625 4.425781 -3.8125 4.59375 -3.8125 L 6.28125 -3.8125 C 6.375 -3.8125 6.445312 -3.800781 6.5 -3.78125 C 6.550781 -3.769531 6.597656 -3.71875 6.640625 -3.625 C 6.691406 -3.539062 6.71875 -3.394531 6.71875 -3.1875 C 6.71875 -2.988281 6.679688 -2.851562 6.609375 -2.78125 C 6.535156 -2.71875 6.421875 -2.6875 6.265625 -2.6875 L 4.75 -2.6875 C 4.601562 -2.6875 4.5 -2.644531 4.4375 -2.5625 C 4.375 -2.488281 4.34375 -2.375 4.34375 -2.21875 L 4.34375 -1.765625 C 4.34375 -1.492188 4.472656 -1.359375 4.734375 -1.359375 L 7.03125 -1.359375 C 7.132812 -1.359375 7.226562 -1.328125 7.3125 -1.265625 C 7.40625 -1.203125 7.453125 -1.0625 7.453125 -0.84375 C 7.453125 -0.625 7.398438 -0.425781 7.296875 -0.25 C 7.191406 -0.0820312 7.066406 0 6.921875 0 Z M 1.234375 0 "/></g></g></g><g fill="#dd551b" fill-opacity="1"><g transform="translate(33.879065, 48.452469)"><g><path d="M 5.796875 -0.5625 C 5.796875 -0.425781 5.738281 -0.300781 5.625 -0.1875 C 5.507812 -0.0703125 5.363281 -0.0078125 5.1875 0 C 4.832031 0.0195312 4.410156 0.03125 3.921875 0.03125 C 3.429688 0.03125 2.976562 0.0195312 2.5625 0 C 2.375 -0.0078125 2.222656 -0.0703125 2.109375 -0.1875 C 2.003906 -0.300781 1.945312 -0.425781 1.9375 -0.5625 C 1.925781 -1.5 1.921875 -2.296875 1.921875 -2.953125 C 1.921875 -3.617188 1.921875 -4.101562 1.921875 -4.40625 C 1.921875 -4.632812 1.816406 -4.75 1.609375 -4.75 L 0.78125 -4.75 C 0.65625 -4.75 0.550781 -4.78125 0.46875 -4.84375 C 0.382812 -4.90625 0.335938 -5.015625 0.328125 -5.171875 C 0.328125 -5.328125 0.328125 -5.488281 0.328125 -5.65625 C 0.328125 -5.820312 0.328125 -5.960938 0.328125 -6.078125 C 0.335938 -6.203125 0.390625 -6.296875 0.484375 -6.359375 C 0.578125 -6.421875 0.675781 -6.453125 0.78125 -6.453125 C 1.570312 -6.460938 2.648438 -6.46875 4.015625 -6.46875 C 5.378906 -6.46875 6.359375 -6.460938 6.953125 -6.453125 C 7.054688 -6.441406 7.148438 -6.40625 7.234375 -6.34375 C 7.328125 -6.289062 7.378906 -6.203125 7.390625 -6.078125 C 7.398438 -5.960938 7.40625 -5.820312 7.40625 -5.65625 C 7.40625 -5.5 7.398438 -5.347656 7.390625 -5.203125 C 7.367188 -4.921875 7.21875 -4.78125 6.9375 -4.78125 L 6.109375 -4.78125 C 5.898438 -4.78125 5.796875 -4.675781 5.796875 -4.46875 C 5.816406 -3.6875 5.828125 -2.984375 5.828125 -2.359375 C 5.828125 -1.734375 5.816406 -1.132812 5.796875 -0.5625 Z M 5.796875 -0.5625 "/></g></g></g><g fill="#dd551b" fill-opacity="1"><g transform="translate(44.081641, 48.452469)"><g><path d="M 3.8125 0.1875 C 2.695312 0.1875 1.816406 -0.09375 1.171875 -0.65625 C 0.535156 -1.21875 0.21875 -2.015625 0.21875 -3.046875 C 0.21875 -3.671875 0.320312 -4.21875 0.53125 -4.6875 C 0.738281 -5.164062 1.03125 -5.546875 1.40625 -5.828125 C 2.144531 -6.390625 3.125 -6.671875 4.34375 -6.671875 C 5.125 -6.671875 5.910156 -6.5625 6.703125 -6.34375 C 7.003906 -6.238281 7.15625 -5.992188 7.15625 -5.609375 C 7.15625 -5.085938 6.988281 -4.828125 6.65625 -4.828125 C 6.601562 -4.828125 6.421875 -4.847656 6.109375 -4.890625 C 5.804688 -4.941406 5.59375 -4.96875 5.46875 -4.96875 C 5.03125 -4.96875 4.691406 -4.816406 4.453125 -4.515625 C 4.222656 -4.210938 4.109375 -3.847656 4.109375 -3.421875 C 4.109375 -3.003906 4.21875 -2.632812 4.4375 -2.3125 C 4.65625 -1.988281 4.957031 -1.820312 5.34375 -1.8125 C 5.59375 -1.800781 6.050781 -1.796875 6.71875 -1.796875 C 7.03125 -1.796875 7.203125 -1.644531 7.234375 -1.34375 C 7.253906 -1.238281 7.265625 -1.128906 7.265625 -1.015625 C 7.265625 -0.898438 7.253906 -0.78125 7.234375 -0.65625 C 7.203125 -0.4375 7.03125 -0.273438 6.71875 -0.171875 C 6.414062 -0.078125 5.972656 0.00390625 5.390625 0.078125 C 4.816406 0.148438 4.289062 0.1875 3.8125 0.1875 Z M 3.8125 0.1875 "/></g></g></g><g fill="#dd551b" fill-opacity="1"><g transform="translate(51.055552, 48.452469)"><g><path d="M 4.125 -5.484375 L 4.109375 -4.640625 L 4.109375 -2.859375 C 4.109375 -2.609375 4.1875 -2.410156 4.34375 -2.265625 C 4.507812 -2.128906 4.695312 -2.0625 4.90625 -2.0625 C 5.125 -2.0625 5.3125 -2.128906 5.46875 -2.265625 C 5.625 -2.410156 5.703125 -2.609375 5.703125 -2.859375 L 5.703125 -5.609375 C 5.703125 -5.898438 5.738281 -6.113281 5.8125 -6.25 C 5.894531 -6.382812 6.066406 -6.453125 6.328125 -6.453125 L 7.171875 -6.453125 C 7.367188 -6.453125 7.503906 -6.394531 7.578125 -6.28125 C 7.722656 -6.070312 7.796875 -5.265625 7.796875 -3.859375 C 7.796875 -3.390625 7.785156 -3.035156 7.765625 -2.796875 C 7.753906 -2.296875 7.640625 -1.847656 7.421875 -1.453125 C 7.210938 -1.066406 6.941406 -0.757812 6.609375 -0.53125 C 5.941406 -0.0507812 5.179688 0.1875 4.328125 0.1875 C 3.210938 0.1875 2.289062 -0.0703125 1.5625 -0.59375 C 1.1875 -0.863281 0.894531 -1.21875 0.6875 -1.65625 C 0.476562 -2.09375 0.367188 -2.601562 0.359375 -3.1875 C 0.347656 -3.476562 0.34375 -3.90625 0.34375 -4.46875 C 0.34375 -5.03125 0.347656 -5.4375 0.359375 -5.6875 C 0.378906 -5.9375 0.429688 -6.125 0.515625 -6.25 C 0.597656 -6.382812 0.765625 -6.453125 1.015625 -6.453125 L 3.484375 -6.453125 C 3.734375 -6.453125 3.894531 -6.390625 3.96875 -6.265625 C 4.070312 -6.097656 4.125 -5.835938 4.125 -5.484375 Z M 4.125 -5.484375 "/></g></g></g><g fill="#dd551b" fill-opacity="1"><g transform="translate(58.610624, 48.452469)"><g><path d="M 6.796875 -6.453125 L 7.796875 -6.453125 C 8.003906 -6.453125 8.148438 -6.414062 8.234375 -6.34375 C 8.316406 -6.28125 8.359375 -6.144531 8.359375 -5.9375 C 8.398438 -5 8.421875 -3.992188 8.421875 -2.921875 C 8.421875 -1.847656 8.398438 -1.0625 8.359375 -0.5625 C 8.335938 -0.414062 8.28125 -0.285156 8.1875 -0.171875 C 8.09375 -0.0546875 7.96875 0 7.8125 0 L 6.28125 0 C 6.0625 0 5.820312 -0.078125 5.5625 -0.234375 C 4.132812 -1.078125 3.238281 -1.585938 2.875 -1.765625 C 2.800781 -1.796875 2.738281 -1.785156 2.6875 -1.734375 C 2.644531 -1.679688 2.625 -1.585938 2.625 -1.453125 L 2.625 -0.421875 C 2.625 -0.304688 2.582031 -0.210938 2.5 -0.140625 C 2.363281 -0.0351562 2.03125 0.015625 1.5 0.015625 C 1.351562 0.015625 1.207031 0.0078125 1.0625 0 C 0.925781 -0.0078125 0.8125 -0.0703125 0.71875 -0.1875 C 0.632812 -0.3125 0.585938 -0.441406 0.578125 -0.578125 C 0.554688 -1.304688 0.546875 -2.226562 0.546875 -3.34375 C 0.546875 -4.46875 0.550781 -5.195312 0.5625 -5.53125 C 0.570312 -5.863281 0.613281 -6.097656 0.6875 -6.234375 C 0.757812 -6.378906 0.898438 -6.453125 1.109375 -6.453125 L 2.125 -6.453125 C 2.332031 -6.453125 2.546875 -6.394531 2.765625 -6.28125 C 4.671875 -5.289062 5.785156 -4.710938 6.109375 -4.546875 C 6.210938 -4.503906 6.289062 -4.5 6.34375 -4.53125 C 6.40625 -4.570312 6.4375 -4.640625 6.4375 -4.734375 L 6.4375 -6.03125 C 6.4375 -6.15625 6.46875 -6.253906 6.53125 -6.328125 C 6.601562 -6.410156 6.691406 -6.453125 6.796875 -6.453125 Z M 6.796875 -6.453125 "/></g></g></g><g fill="#dd551b" fill-opacity="1"><g transform="translate(66.903672, 48.452469)"><g><path d="M 5.8125 -4.953125 C 5.257812 -4.953125 4.867188 -4.8125 4.640625 -4.53125 C 4.421875 -4.25 4.3125 -3.796875 4.3125 -3.171875 C 4.3125 -2.191406 4.597656 -1.703125 5.171875 -1.703125 C 5.285156 -1.703125 5.363281 -1.707031 5.40625 -1.71875 C 5.332031 -1.71875 5.269531 -1.84375 5.21875 -2.09375 C 5.175781 -2.351562 5.15625 -2.625 5.15625 -2.90625 C 5.15625 -3.195312 5.226562 -3.382812 5.375 -3.46875 C 5.53125 -3.550781 5.742188 -3.59375 6.015625 -3.59375 C 6.296875 -3.59375 6.488281 -3.585938 6.59375 -3.578125 C 6.695312 -3.578125 6.816406 -3.566406 6.953125 -3.546875 C 7.097656 -3.523438 7.207031 -3.492188 7.28125 -3.453125 C 7.457031 -3.347656 7.546875 -3.195312 7.546875 -3 L 7.546875 -1.65625 C 7.546875 -1.175781 7.457031 -0.789062 7.28125 -0.5 C 7.113281 -0.21875 6.789062 -0.0546875 6.3125 -0.015625 C 5.644531 0.0546875 4.628906 0.09375 3.265625 0.09375 C 2.722656 0.09375 2.253906 0.0078125 1.859375 -0.15625 C 1.472656 -0.332031 1.171875 -0.578125 0.953125 -0.890625 C 0.566406 -1.460938 0.375 -2.1875 0.375 -3.0625 C 0.375 -3.945312 0.65625 -4.734375 1.21875 -5.421875 C 1.78125 -6.109375 2.53125 -6.476562 3.46875 -6.53125 C 4.113281 -6.5625 4.582031 -6.578125 4.875 -6.578125 C 5.925781 -6.578125 6.671875 -6.515625 7.109375 -6.390625 C 7.410156 -6.304688 7.5625 -6.0625 7.5625 -5.65625 C 7.5625 -5.125 7.40625 -4.859375 7.09375 -4.859375 C 7 -4.867188 6.800781 -4.882812 6.5 -4.90625 C 6.207031 -4.9375 5.976562 -4.953125 5.8125 -4.953125 Z M 5.8125 -4.953125 "/></g></g></g></svg>